<svg version="1.1" id="Layer_1" xmlns="http://www.w3.org/2000/svg" xmlns:xlink="http://www.w3.org/1999/xlink" x="0px" y="0px"
	 viewBox="0 0 32 32" style="enable-background:new 0 0 32 32;" xml:space="preserve">
<style type="text/css">
	.st0{fill:#2DC4EB;}
</style>
<path class="st0" d="M7,16.6c-0.4-0.4-0.4-0.9,0-1.3l8.1-8.1c0.4-0.4,0.4-0.9,0-1.3L13.1,4c-0.4-0.4-0.9-0.4-1.3,0L0.5,15.3
	c-0.4,0.4-0.4,0.9,0,1.3L12,28.1c0.4,0.4,0.9,0.4,1.3,0l1.9-1.9c0.4-0.4,0.4-0.9,0-1.3L7,16.6z"/>
<path class="st0" d="M20.8,16.6c-0.4-0.4-0.4-0.9,0-1.3L31.1,5c0.4-0.4,0.4-0.9,0-1.3l-1.9-1.9c-0.4-0.4-0.9-0.4-1.3,0L14.3,15.3
	c-0.4,0.4-0.4,0.9,0,1.3l13.6,13.6c0.4,0.4,0.9,0.4,1.3,0l1.9-1.9c0.4-0.4,0.4-0.9,0-1.3L20.8,16.6z"/>
</svg>
